<svg xmlns="http://www.w3.org/2000/svg" width="700" height="342" viewBox="0 0 700 342" font-family="-apple-system, BlinkMacSystemFont, 'Segoe UI', Roboto, Helvetica, Arial, sans-serif"><rect width="700" height="342" rx="10" fill="#f7f8fa"/><defs><marker id="ah" viewBox="0 0 10 10" refX="9" refY="5" markerWidth="6" markerHeight="6" orient="auto"><path d="M0,0 L10,5 L0,10 z" fill="#5b6470"/></marker></defs><text x="24" y="30" font-size="14" fill="#1f2328" font-weight="600" text-anchor="start" font-family="-apple-system, BlinkMacSystemFont, 'Segoe UI', Roboto, Helvetica, Arial, sans-serif">What each head can draw, against the same reference outline</text><rect x="30" y="52" width="196" height="196" rx="5" fill="#ffffff" stroke="#c9cfd6" stroke-width="1.2"/><rect x="62" y="106" width="22" height="22" rx="0" fill="#0d7c8b" stroke="#0d7c8b" stroke-width="0.5"/><rect x="62" y="128" width="22" height="22" rx="0" fill="#0d7c8b" stroke="#0d7c8b" stroke-width="0.5"/><rect x="84" y="106" width="22" height="22" rx="0" fill="#0d7c8b" stroke="#0d7c8b" stroke-width="0.5"/><rect x="84" y="128" width="22" height="22" rx="0" fill="#0d7c8b" stroke="#0d7c8b" stroke-width="0.5"/><rect x="84" y="150" width="22" height="22" rx="0" fill="#0d7c8b" stroke="#0d7c8b" stroke-width="0.5"/><rect x="84" y="172" width="22" height="22" rx="0" fill="#0d7c8b" stroke="#0d7c8b" stroke-width="0.5"/><rect x="106" y="106" width="22" height="22" rx="0" fill="#0d7c8b" stroke="#0d7c8b" stroke-width="0.5"/><rect x="106" y="128" width="22" height="22" rx="0" fill="#0d7c8b" stroke="#0d7c8b" stroke-width="0.5"/><rect x="106" y="150" width="22" height="22" rx="0" fill="#0d7c8b" stroke="#0d7c8b" stroke-width="0.5"/><rect x="106" y="172" width="22" height="22" rx="0" fill="#0d7c8b" stroke="#0d7c8b" stroke-width="0.5"/><rect x="106" y="194" width="22" height="22" rx="0" fill="#0d7c8b" stroke="#0d7c8b" stroke-width="0.5"/><rect x="128" y="106" width="22" height="22" rx="0" fill="#0d7c8b" stroke="#0d7c8b" stroke-width="0.5"/><rect x="128" y="128" width="22" height="22" rx="0" fill="#0d7c8b" stroke="#0d7c8b" stroke-width="0.5"/><rect x="128" y="150" width="22" height="22" rx="0" fill="#0d7c8b" stroke="#0d7c8b" stroke-width="0.5"/><rect x="128" y="172" width="22" height="22" rx="0" fill="#0d7c8b" stroke="#0d7c8b" stroke-width="0.5"/><rect x="128" y="194" width="22" height="22" rx="0" fill="#0d7c8b" stroke="#0d7c8b" stroke-width="0.5"/><rect x="150" y="106" width="22" height="22" rx="0" fill="#0d7c8b" stroke="#0d7c8b" stroke-width="0.5"/><rect x="150" y="128" width="22" height="22" rx="0" fill="#0d7c8b" stroke="#0d7c8b" stroke-width="0.5"/><rect x="150" y="150" width="22" height="22" rx="0" fill="#0d7c8b" stroke="#0d7c8b" stroke-width="0.5"/><rect x="172" y="128" width="22" height="22" rx="0" fill="#0d7c8b" stroke="#0d7c8b" stroke-width="0.5"/><rect x="172" y="150" width="22" height="22" rx="0" fill="#0d7c8b" stroke="#0d7c8b" stroke-width="0.5"/><line x1="40" y1="62" x2="40" y2="238" stroke="#0d7c8b" stroke-width="0.6" opacity="0.55"/><line x1="40" y1="62" x2="216" y2="62" stroke="#0d7c8b" stroke-width="0.6" opacity="0.55"/><line x1="62" y1="62" x2="62" y2="238" stroke="#0d7c8b" stroke-width="0.6" opacity="0.55"/><line x1="40" y1="84" x2="216" y2="84" stroke="#0d7c8b" stroke-width="0.6" opacity="0.55"/><line x1="84" y1="62" x2="84" y2="238" stroke="#0d7c8b" stroke-width="0.6" opacity="0.55"/><line x1="40" y1="106" x2="216" y2="106" stroke="#0d7c8b" stroke-width="0.6" opacity="0.55"/><line x1="106" y1="62" x2="106" y2="238" stroke="#0d7c8b" stroke-width="0.6" opacity="0.55"/><line x1="40" y1="128" x2="216" y2="128" stroke="#0d7c8b" stroke-width="0.6" opacity="0.55"/><line x1="128" y1="62" x2="128" y2="238" stroke="#0d7c8b" stroke-width="0.6" opacity="0.55"/><line x1="40" y1="150" x2="216" y2="150" stroke="#0d7c8b" stroke-width="0.6" opacity="0.55"/><line x1="150" y1="62" x2="150" y2="238" stroke="#0d7c8b" stroke-width="0.6" opacity="0.55"/><line x1="40" y1="172" x2="216" y2="172" stroke="#0d7c8b" stroke-width="0.6" opacity="0.55"/><line x1="172" y1="62" x2="172" y2="238" stroke="#0d7c8b" stroke-width="0.6" opacity="0.55"/><line x1="40" y1="194" x2="216" y2="194" stroke="#0d7c8b" stroke-width="0.6" opacity="0.55"/><line x1="194" y1="62" x2="194" y2="238" stroke="#0d7c8b" stroke-width="0.6" opacity="0.55"/><line x1="40" y1="216" x2="216" y2="216" stroke="#0d7c8b" stroke-width="0.6" opacity="0.55"/><line x1="216" y1="62" x2="216" y2="238" stroke="#0d7c8b" stroke-width="0.6" opacity="0.55"/><line x1="40" y1="238" x2="216" y2="238" stroke="#0d7c8b" stroke-width="0.6" opacity="0.55"/><path d="M193.6,150.0 Q193.6,150.0 180.1,159.3 Q166.6,168.6 161.9,177.6 Q157.2,186.6 150.7,203.7 Q144.2,220.8 129.1,216.1 Q114.0,211.4 104.5,201.4 Q95.0,191.4 88.8,181.6 Q82.7,171.8 80.9,160.9 Q79.2,150.0 71.3,134.5 Q63.5,119.0 74.7,108.1 Q85.9,97.2 102.3,103.2 Q118.7,109.3 129.1,104.5 Q139.5,99.8 152.9,100.9 Q166.3,102.0 176.0,112.1 Q185.8,122.2 189.7,136.1 Z" fill="none" stroke="#bb3d78" stroke-width="2.4"/><text x="128" y="272" font-size="12.5" fill="#1f2328" font-weight="650" text-anchor="middle" font-family="-apple-system, BlinkMacSystemFont, 'Segoe UI', Roboto, Helvetica, Arial, sans-serif">logistic head, before</text><text x="128" y="288" font-size="11" fill="#5b6470" font-weight="normal" text-anchor="middle" font-family="-apple-system, BlinkMacSystemFont, 'Segoe UI', Roboto, Helvetica, Arial, sans-serif">one value per 8mm block</text><rect x="380" y="52" width="196" height="196" rx="5" fill="#ffffff" stroke="#c9cfd6" stroke-width="1.2"/><path d="M543.6,150.0 Q543.6,150.0 530.1,159.3 Q516.6,168.6 511.9,177.6 Q507.2,186.6 500.7,203.7 Q494.2,220.8 479.1,216.1 Q464.0,211.4 454.5,201.4 Q445.0,191.4 438.8,181.6 Q432.7,171.8 430.9,160.9 Q429.2,150.0 421.3,134.5 Q413.5,119.0 424.7,108.1 Q435.9,97.2 452.3,103.2 Q468.7,109.3 479.1,104.5 Q489.5,99.8 502.9,100.9 Q516.3,102.0 526.0,112.1 Q535.8,122.2 539.7,136.1 Z" fill="#0d7c8b" opacity="0.75" transform="translate(1.5,1.5)"/><line x1="390" y1="62" x2="390" y2="238" stroke="#0d7c8b" stroke-width="0.6" opacity="0.18"/><line x1="390" y1="62" x2="566" y2="62" stroke="#0d7c8b" stroke-width="0.6" opacity="0.18"/><line x1="412" y1="62" x2="412" y2="238" stroke="#0d7c8b" stroke-width="0.6" opacity="0.18"/><line x1="390" y1="84" x2="566" y2="84" stroke="#0d7c8b" stroke-width="0.6" opacity="0.18"/><line x1="434" y1="62" x2="434" y2="238" stroke="#0d7c8b" stroke-width="0.6" opacity="0.18"/><line x1="390" y1="106" x2="566" y2="106" stroke="#0d7c8b" stroke-width="0.6" opacity="0.18"/><line x1="456" y1="62" x2="456" y2="238" stroke="#0d7c8b" stroke-width="0.6" opacity="0.18"/><line x1="390" y1="128" x2="566" y2="128" stroke="#0d7c8b" stroke-width="0.6" opacity="0.18"/><line x1="478" y1="62" x2="478" y2="238" stroke="#0d7c8b" stroke-width="0.6" opacity="0.18"/><line x1="390" y1="150" x2="566" y2="150" stroke="#0d7c8b" stroke-width="0.6" opacity="0.18"/><line x1="500" y1="62" x2="500" y2="238" stroke="#0d7c8b" stroke-width="0.6" opacity="0.18"/><line x1="390" y1="172" x2="566" y2="172" stroke="#0d7c8b" stroke-width="0.6" opacity="0.18"/><line x1="522" y1="62" x2="522" y2="238" stroke="#0d7c8b" stroke-width="0.6" opacity="0.18"/><line x1="390" y1="194" x2="566" y2="194" stroke="#0d7c8b" stroke-width="0.6" opacity="0.18"/><line x1="544" y1="62" x2="544" y2="238" stroke="#0d7c8b" stroke-width="0.6" opacity="0.18"/><line x1="390" y1="216" x2="566" y2="216" stroke="#0d7c8b" stroke-width="0.6" opacity="0.18"/><line x1="566" y1="62" x2="566" y2="238" stroke="#0d7c8b" stroke-width="0.6" opacity="0.18"/><line x1="390" y1="238" x2="566" y2="238" stroke="#0d7c8b" stroke-width="0.6" opacity="0.18"/><path d="M543.6,150.0 Q543.6,150.0 530.1,159.3 Q516.6,168.6 511.9,177.6 Q507.2,186.6 500.7,203.7 Q494.2,220.8 479.1,216.1 Q464.0,211.4 454.5,201.4 Q445.0,191.4 438.8,181.6 Q432.7,171.8 430.9,160.9 Q429.2,150.0 421.3,134.5 Q413.5,119.0 424.7,108.1 Q435.9,97.2 452.3,103.2 Q468.7,109.3 479.1,104.5 Q489.5,99.8 502.9,100.9 Q516.3,102.0 526.0,112.1 Q535.8,122.2 539.7,136.1 Z" fill="none" stroke="#bb3d78" stroke-width="2.4"/><text x="478" y="272" font-size="12.5" fill="#1f2328" font-weight="650" text-anchor="middle" font-family="-apple-system, BlinkMacSystemFont, 'Segoe UI', Roboto, Helvetica, Arial, sans-serif">conv decoder, after</text><text x="478" y="288" font-size="11" fill="#5b6470" font-weight="normal" text-anchor="middle" font-family="-apple-system, BlinkMacSystemFont, 'Segoe UI', Roboto, Helvetica, Arial, sans-serif">one value per 1mm voxel</text><line x1="24" y1="304" x2="676" y2="304" stroke="#c9cfd6" stroke-width="1"/><text x="350" y="326" font-size="11.5" fill="#5b6470" font-weight="normal" text-anchor="middle" font-family="-apple-system, BlinkMacSystemFont, 'Segoe UI', Roboto, Helvetica, Arial, sans-serif">Pink is the reference outline. Teal is what the head can express.</text></svg>